<svg id="svg" version="1.1" xmlns="http://www.w3.org/2000/svg" xmlns:xlink="http://www.w3.org/1999/xlink" width="400" height="338.8235294117647" viewBox="0, 0, 400,338.8235294117647"><g id="svgg"><path id="path1" d="M198.577 5.678 C 198.097 6.191,197.437 7.144,197.110 7.797 C 196.784 8.449,196.064 9.502,195.511 10.137 C 194.958 10.771,193.830 12.747,193.003 14.528 C 192.177 16.308,191.140 18.238,190.700 18.815 C 190.259 19.393,189.203 21.353,188.353 23.172 C 187.504 24.990,186.396 26.965,185.892 27.561 C 185.388 28.157,184.484 29.712,183.883 31.017 C 183.282 32.322,182.025 34.420,181.090 35.678 C 180.155 36.937,179.108 38.751,178.763 39.709 C 178.419 40.668,177.585 42.079,176.911 42.845 C 176.237 43.611,175.035 45.534,174.239 47.119 C 173.443 48.703,172.355 50.638,171.820 51.418 C 171.285 52.197,170.155 54.326,169.309 56.147 C 168.464 57.969,167.398 59.950,166.941 60.549 C 166.484 61.148,165.569 62.827,164.906 64.281 C 164.244 65.734,163.116 67.699,162.399 68.648 C 161.683 69.598,160.676 71.205,160.162 72.221 C 159.648 73.237,158.573 74.798,157.772 75.690 C 156.971 76.582,156.132 77.878,155.908 78.571 C 155.330 80.356,153.599 83.774,152.867 84.576 C 152.527 84.949,151.538 86.694,150.669 88.454 C 149.800 90.213,148.736 92.120,148.303 92.691 C 147.870 93.262,146.746 95.378,145.804 97.394 C 144.862 99.410,143.697 101.529,143.214 102.103 C 142.731 102.677,141.880 104.154,141.322 105.387 C 140.764 106.619,139.707 108.241,138.972 108.991 C 138.238 109.741,137.041 111.586,136.313 113.092 C 135.585 114.597,134.470 116.510,133.835 117.342 C 133.200 118.174,132.344 119.776,131.934 120.902 C 131.523 122.028,130.491 124.002,129.641 125.288 C 128.790 126.575,127.575 128.744,126.939 130.110 C 126.304 131.475,125.247 133.324,124.591 134.218 C 123.934 135.112,122.944 136.957,122.390 138.319 C 121.799 139.771,120.837 141.367,120.064 142.177 C 119.339 142.937,118.180 144.703,117.487 146.102 C 116.795 147.500,115.770 149.220,115.210 149.923 C 114.650 150.627,113.796 152.076,113.311 153.144 C 112.826 154.211,111.845 156.016,111.131 157.154 C 110.416 158.292,109.279 160.428,108.604 161.900 C 107.929 163.372,106.834 165.339,106.170 166.271 C 105.506 167.203,104.435 169.110,103.790 170.508 C 103.144 171.907,102.066 173.681,101.393 174.451 C 100.720 175.221,99.636 177.097,98.983 178.621 C 98.331 180.144,97.139 182.168,96.336 183.119 C 95.533 184.069,94.421 185.851,93.865 187.078 C 93.308 188.304,92.560 189.620,92.202 190.002 C 91.843 190.383,90.774 192.341,89.826 194.351 C 88.877 196.361,87.554 198.863,86.884 199.909 C 86.215 200.955,85.242 202.749,84.723 203.895 C 84.203 205.041,83.228 206.637,82.557 207.441 C 81.885 208.244,80.817 210.024,80.184 211.395 C 79.550 212.767,78.420 214.615,77.673 215.504 C 76.926 216.392,75.843 218.171,75.267 219.458 C 74.691 220.745,73.685 222.526,73.031 223.416 C 72.378 224.306,71.294 226.228,70.621 227.687 C 69.949 229.146,68.950 230.994,68.402 231.795 C 67.853 232.595,66.752 234.655,65.956 236.371 C 65.159 238.087,64.123 239.949,63.654 240.508 C 63.184 241.068,62.151 242.822,61.358 244.407 C 60.564 245.992,59.383 247.880,58.732 248.603 C 58.082 249.327,57.163 250.776,56.690 251.824 C 56.218 252.872,55.316 254.442,54.686 255.313 C 54.055 256.184,52.913 258.244,52.148 259.889 C 51.382 261.535,50.238 263.595,49.605 264.466 C 48.972 265.338,47.905 267.245,47.235 268.704 C 46.565 270.162,45.502 272.064,44.872 272.928 C 44.242 273.793,43.171 275.813,42.492 277.417 C 41.803 279.045,40.683 280.972,39.957 281.777 C 39.243 282.571,38.210 284.154,37.662 285.295 C 37.115 286.436,36.193 287.909,35.615 288.568 C 35.036 289.227,33.935 291.116,33.167 292.765 C 32.400 294.414,31.278 296.449,30.674 297.288 C 30.070 298.127,29.079 299.958,28.470 301.356 C 27.862 302.754,26.717 304.814,25.927 305.932 C 25.136 307.051,23.997 309.110,23.394 310.508 C 22.792 311.907,21.866 313.508,21.336 314.068 C 20.806 314.627,19.913 316.099,19.351 317.338 C 18.790 318.577,17.688 320.331,16.904 321.236 C 13.521 325.138,12.875 328.871,15.168 331.271 L 16.059 332.203 199.911 332.203 C 361.158 332.203,383.881 332.142,384.728 331.704 C 385.865 331.116,387.272 328.448,387.018 327.359 C 386.579 325.468,384.621 321.470,383.560 320.295 C 382.914 319.580,381.677 317.582,380.811 315.854 C 379.944 314.126,378.789 312.201,378.243 311.577 C 377.698 310.953,376.806 309.524,376.262 308.402 C 375.719 307.279,374.875 305.838,374.388 305.200 C 373.901 304.561,372.802 302.558,371.945 300.748 C 371.089 298.938,369.864 296.637,369.224 295.635 C 368.584 294.632,367.592 292.802,367.020 291.567 C 366.448 290.332,365.414 288.671,364.722 287.876 C 364.030 287.080,363.119 285.555,362.698 284.486 C 361.716 281.997,360.812 280.427,359.624 279.153 C 359.103 278.593,358.138 276.967,357.478 275.539 C 356.819 274.111,355.916 272.509,355.471 271.980 C 355.027 271.450,353.862 269.418,352.883 267.464 C 351.903 265.511,350.750 263.450,350.319 262.885 C 349.888 262.320,348.912 260.503,348.151 258.846 C 347.389 257.190,346.260 255.132,345.641 254.273 C 345.022 253.415,344.056 251.720,343.494 250.508 C 342.933 249.297,341.827 247.542,341.037 246.610 C 340.248 245.678,339.073 243.771,338.427 242.373 C 337.781 240.975,336.819 239.373,336.290 238.814 C 335.761 238.254,334.765 236.501,334.075 234.916 C 333.386 233.332,332.173 231.044,331.379 229.832 C 330.585 228.619,329.447 226.563,328.848 225.263 C 328.250 223.963,327.373 222.390,326.899 221.768 C 326.425 221.147,325.368 219.206,324.550 217.457 C 323.732 215.707,322.585 213.730,322.000 213.064 C 321.415 212.398,320.459 210.953,319.875 209.854 C 319.291 208.755,318.287 207.219,317.643 206.440 C 316.999 205.661,315.887 203.709,315.171 202.102 C 314.456 200.495,313.514 198.713,313.078 198.141 C 312.643 197.570,311.423 195.428,310.368 193.382 C 309.314 191.335,308.024 189.051,307.502 188.305 C 306.980 187.559,306.110 185.887,305.568 184.588 C 305.025 183.289,304.017 181.512,303.326 180.638 C 302.636 179.765,301.598 178.005,301.020 176.728 C 300.441 175.451,299.457 173.873,298.831 173.220 C 298.206 172.568,297.050 170.737,296.262 169.153 C 295.474 167.568,294.393 165.718,293.861 165.043 C 293.328 164.367,292.359 162.569,291.708 161.047 C 291.056 159.524,290.082 157.636,289.543 156.851 C 289.004 156.066,287.930 154.161,287.155 152.619 C 286.380 151.076,285.070 148.825,284.242 147.616 C 283.415 146.407,282.554 144.808,282.331 144.061 C 282.107 143.315,281.142 141.801,280.186 140.697 C 279.075 139.414,278.043 137.711,277.329 135.980 C 276.714 134.490,275.711 132.688,275.101 131.975 C 274.490 131.261,273.359 129.421,272.586 127.884 C 271.814 126.348,270.676 124.289,270.058 123.308 C 269.440 122.328,268.489 120.458,267.946 119.153 C 267.402 117.847,266.291 115.801,265.477 114.605 C 264.662 113.409,263.726 111.800,263.395 111.030 C 263.065 110.259,262.172 108.909,261.412 108.031 C 260.651 107.152,259.422 105.137,258.680 103.553 C 257.937 101.970,256.784 100.007,256.116 99.192 C 255.448 98.377,254.512 96.751,254.035 95.578 C 253.559 94.406,252.557 92.546,251.809 91.445 C 251.062 90.343,249.978 88.424,249.400 87.179 C 248.823 85.934,247.638 83.770,246.766 82.369 C 245.895 80.969,245.064 79.444,244.920 78.980 C 244.461 77.499,243.472 75.756,242.284 74.333 C 241.648 73.573,240.486 71.753,239.700 70.289 C 238.915 68.825,237.704 66.908,237.010 66.029 C 236.316 65.150,235.495 63.746,235.184 62.909 C 234.874 62.072,233.945 60.351,233.120 59.084 C 232.294 57.816,231.079 55.609,230.420 54.178 C 229.760 52.747,228.736 50.873,228.144 50.013 C 227.552 49.152,226.565 47.344,225.949 45.993 C 225.334 44.643,224.267 42.780,223.579 41.854 C 222.891 40.927,221.794 38.949,221.140 37.458 C 220.478 35.947,219.377 34.145,218.654 33.390 C 217.940 32.644,216.898 31.119,216.338 30.000 C 215.778 28.881,214.619 26.925,213.762 25.651 C 212.905 24.378,212.203 23.184,212.203 22.997 C 212.203 22.520,209.869 17.905,209.314 17.285 C 209.062 17.003,208.213 15.478,207.428 13.895 C 203.899 6.779,200.499 3.623,198.577 5.678 M220.120 112.330 C 220.734 112.587,221.797 113.289,222.482 113.891 L 223.729 114.985 223.726 118.086 C 223.725 119.791,223.580 122.483,223.405 124.068 C 222.640 130.990,221.906 144.860,221.358 162.712 C 220.700 184.152,220.208 192.425,218.817 205.424 C 217.897 214.018,217.453 220.108,216.940 231.186 C 216.451 241.740,216.252 242.880,214.723 243.882 C 213.722 244.538,191.880 244.659,188.163 244.029 C 183.982 243.320,183.861 242.895,183.393 227.220 C 182.884 210.179,182.335 200.727,181.190 189.322 C 179.841 175.886,179.382 167.777,178.629 144.068 C 178.431 137.822,178.126 130.195,177.952 127.119 C 177.779 124.042,177.635 120.034,177.632 118.211 L 177.627 114.897 179.144 113.381 L 180.660 111.864 199.832 111.864 C 215.332 111.864,219.218 111.954,220.120 112.330 M206.780 267.935 C 210.847 268.522,213.074 269.411,215.567 271.442 C 216.653 272.327,218.088 273.472,218.756 273.986 C 223.313 277.493,225.229 289.784,222.468 297.797 C 220.447 303.663,220.147 304.265,218.733 305.297 C 218.031 305.809,216.695 306.952,215.763 307.838 C 212.781 310.670,207.164 312.238,200.000 312.238 C 185.583 312.238,178.433 306.041,176.554 291.916 C 175.865 286.738,178.943 275.190,181.356 273.898 C 181.719 273.704,182.943 272.774,184.076 271.831 C 188.780 267.916,196.938 266.516,206.780 267.935 " stroke="none" fill="#ffdd57" fill-rule="evenodd"></path><path id="path2" d="M179.144 113.381 L 177.627 114.897 177.632 118.211 C 177.635 120.034,177.779 124.042,177.952 127.119 C 178.126 130.195,178.431 137.822,178.629 144.068 C 179.382 167.777,179.841 175.886,181.190 189.322 C 182.335 200.727,182.884 210.179,183.393 227.220 C 183.861 242.895,183.982 243.320,188.163 244.029 C 191.880 244.659,213.722 244.538,214.723 243.882 C 216.252 242.880,216.451 241.740,216.940 231.186 C 217.453 220.108,217.897 214.018,218.817 205.424 C 220.208 192.425,220.700 184.152,221.358 162.712 C 221.906 144.860,222.640 130.990,223.405 124.068 C 223.580 122.483,223.725 119.791,223.726 118.086 L 223.729 114.985 222.482 113.891 C 220.104 111.803,220.790 111.864,199.832 111.864 L 180.660 111.864 179.144 113.381 M192.845 267.956 C 189.278 268.475,186.784 269.577,184.076 271.831 C 182.943 272.774,181.719 273.704,181.356 273.898 C 178.943 275.190,175.865 286.738,176.554 291.916 C 178.433 306.041,185.583 312.238,200.000 312.238 C 207.164 312.238,212.781 310.670,215.763 307.838 C 216.695 306.952,218.031 305.809,218.733 305.297 C 220.147 304.265,220.447 303.663,222.468 297.797 C 225.229 289.784,223.313 277.493,218.756 273.986 C 218.088 273.472,216.653 272.327,215.567 271.442 C 211.238 267.915,202.424 266.563,192.845 267.956 " stroke="none" fill="#0b0a06" fill-rule="evenodd"></path></g></svg>